<svg t="1742896628729" class="icon" viewBox="0 0 1024 1024" version="1.1" xmlns="http://www.w3.org/2000/svg" p-id="3218" width="32" height="32"><path d="M0 0m227.555556 0l568.888888 0q227.555556 0 227.555556 227.555556l0 568.888888q0 227.555556-227.555556 227.555556l-568.888888 0q-227.555556 0-227.555556-227.555556l0-568.888888q0-227.555556 227.555556-227.555556Z" fill="#E4E9F2" p-id="3219"></path><path d="M512 512m-455.111111 0a455.111111 455.111111 0 1 0 910.222222 0 455.111111 455.111111 0 1 0-910.222222 0Z" fill="#E4E9F2" p-id="3220"></path><path d="M512 512m-386.844444 0a386.844444 386.844444 0 1 0 773.688888 0 386.844444 386.844444 0 1 0-773.688888 0Z" fill="#0083CC" p-id="3221" data-spm-anchor-id="a313x.collections_detail.0.i8.39c83a8162I7dK" class="selected"></path><path d="M587.377778 659.911111H436.622222V493.511111c0-14.222222 11.377778-25.6 25.6-25.6h100.977778c14.222222 0 25.6 11.377778 25.6 25.6v166.4zM436.622222 749.511111h150.755556v54.044445H436.622222zM436.622222 678.4h150.755556v54.044444H436.622222z" fill="#FFFFFF" p-id="3222"></path><path d="M426.666667 230.4m83.911111 0l2.844444 0q83.911111 0 83.911111 83.911111l0 0q0 83.911111-83.911111 83.911111l-2.844444 0q-83.911111 0-83.911111-83.911111l0 0q0-83.911111 83.911111-83.911111Z" fill="#FFFFFF" p-id="3223"></path></svg> 